:FULLY-SPECIFIED
:FORCE-ALL-JOINTS-BE-3DOF
:DEGREES
2956
root -2.13197 15.4677 -30.3988 14.2523 -60.9779 -15.9166
lfemur -33.1395 20.5938 -3.31716
ltibia 46.5764 -0 0
lfoot -4.49516 4.24519 -0.584944
ltoes -26.2304 0 0
rfemur -24.542 -10.4735 17.9067
rtibia 61.1594 -0 0
rfoot -23.1256 -20.214 0.00457097
rtoes -16.3104 0 0
lowerback 11.1934 4.17395 0.171752
upperback -3.43968 5.77376 1.63503
thorax -10.0605 2.8067 0.339095
lowerneck -4.85074 3.22479 -2.01631
upperneck 10.0808 4.12251 3.45662
head 4.12114 2.11091 1.43097
lclavicle 2.12086e-15 -4.81583e-15 -3.13991e-30
lhumerus -16.6878 4.70359 85.3932
lradius 66.1247 -0 0
lwrist -18.7279 0 0
lhand -37.5868 29.8651 0.0421238
lfingers 7.12502 -0 0
lthumb -10.6394 59.5455 0.0457068
rclavicle 2.12086e-15 -4.81583e-15 -3.13991e-30
rhumerus -43.3194 30.6263 -90.5553
rradius 78.56 -0 0
rwrist -48.6921 0 0
rhand -6.45049 -30.7316 0.356507
rfingers 7.12502 -0 0
rthumb 19.3737 -59.4579 0.43272
2957
root -2.11896 15.4735 -30.4097 14.1329 -60.7308 -15.7893
lfemur -33.0696 20.5026 -3.32574
ltibia 46.5318 -0 0
lfoot -4.54494 4.27097 -0.585467
ltoes -26.2847 0 0
rfemur -24.5149 -10.4324 17.9053
rtibia 61.0682 -0 0
rfoot -23.0826 -20.2106 0.00497237
rtoes -16.3175 0 0
lowerback 11.1725 4.1654 0.167458
upperback -3.44377 5.76161 1.63562
thorax -10.053 2.80138 0.345809
lowerneck -4.85773 3.19273 -2.03795
upperneck 10.091 4.08004 3.46796
head 4.12562 2.0898 1.43609
lclavicle 2.23558e-15 -4.73818e-15 -3.1474e-30
lhumerus -16.7435 4.6599 85.408
lradius 65.9693 -0 0
lwrist -18.7309 0 0
lhand -37.5708 29.8701 0.0421316
lfingers 7.12502 -0 0
lthumb -10.6239 59.5512 0.0457205
rclavicle 2.23558e-15 -4.73818e-15 -3.1474e-30
rhumerus -43.2763 30.5321 -90.5046
rradius 78.3852 -0 0
rwrist -48.4912 0 0
rhand -6.49646 -30.7484 0.356792
rfingers 7.12502 -0 0
rthumb 19.3294 -59.479 0.433056
2958
root -2.10594 15.4793 -30.4207 14.0156 -60.4835 -15.6639
lfemur -32.9997 20.4114 -3.33446
ltibia 46.4871 -0 0
lfoot -4.59474 4.29676 -0.585967
ltoes -26.339 0 0
rfemur -24.4877 -10.3914 17.9039
rtibia 60.9769 -0 0
rfoot -23.0395 -20.2072 0.00537148
rtoes -16.3246 0 0
lowerback 11.1517 4.15685 0.163163
upperback -3.44786 5.74946 1.6362
thorax -10.0455 2.79604 0.352527
lowerneck -4.86471 3.16066 -2.05959
upperneck 10.1012 4.03756 3.47928
head 4.13009 2.06868 1.44121
lclavicle 2.35043e-15 -4.66046e-15 -3.15475e-30
lhumerus -16.7992 4.61611 85.4228
lradius 65.8138 -0 0
lwrist -18.7339 0 0
lhand -37.5547 29.8751 0.0421378
lfingers 7.12502 -0 0
lthumb -10.6083 59.557 0.0457325
rclavicle 2.35043e-15 -4.66046e-15 -3.15475e-30
rhumerus -43.2333 30.4378 -90.454
rradius 78.2104 -0 0
rwrist -48.29 0 0
rhand -6.54244 -30.7652 0.357064
rfingers 7.12502 -0 0
rthumb 19.2852 -59.5002 0.433376
2959
root -2.09291 15.485 -30.4317 13.9001 -60.236 -15.5405
lfemur -32.9298 20.3202 -3.3433
ltibia 46.4424 -0 0
lfoot -4.64456 4.32258 -0.586443
ltoes -26.3934 0 0
rfemur -24.4606 -10.3503 17.9026
rtibia 60.8856 -0 0
rfoot -22.9964 -20.2038 0.00576828
rtoes -16.3318 0 0
lowerback 11.1309 4.14829 0.158867
upperback -3.45195 5.7373 1.63679
thorax -10.038 2.79071 0.359247
lowerneck -4.87168 3.12858 -2.08125
upperneck 10.1114 3.99506 3.49061
head 4.13456 2.04757 1.44633
lclavicle 2.4654e-15 -4.58267e-15 -3.16196e-30
lhumerus -16.8548 4.5722 85.4377
lradius 65.6584 -0 0
lwrist -18.7368 0 0
lhand -37.5386 29.8801 0.0421426
lfingers 7.12502 -0 0
lthumb -10.5928 59.5628 0.0457429
rclavicle 2.4654e-15 -4.58267e-15 -3.16196e-30
rhumerus -43.1903 30.3436 -90.4035
rradius 78.0355 -0 0
rwrist -48.0888 0 0
rhand -6.58844 -30.782 0.357321
rfingers 7.12502 -0 0
rthumb 19.241 -59.5214 0.433678
2960
root -2.07987 15.4908 -30.4426 13.7866 -59.9883 -15.4189
lfemur -32.8599 20.2289 -3.35228
ltibia 46.3978 -0 0
lfoot -4.6944 4.34842 -0.586897
ltoes -26.4478 0 0
rfemur -24.4335 -10.3092 17.9012
rtibia 60.7942 -0 0
rfoot -22.9533 -20.2004 0.0061627
rtoes -16.3389 0 0
lowerback 11.1101 4.13973 0.15457
upperback -3.45603 5.72513 1.63738
thorax -10.0305 2.78537 0.365971
lowerneck -4.87863 3.09649 -2.1029
upperneck 10.1215 3.95255 3.50192
head 4.13902 2.02644 1.45145
lclavicle 2.58051e-15 -4.50481e-15 -3.16901e-30
lhumerus -16.9102 4.52819 85.4526
lradius 65.5029 -0 0
lwrist -18.7398 0 0
lhand -37.5225 29.8851 0.0421458
lfingers 7.12502 -0 0
lthumb -10.5773 59.5685 0.0457516
rclavicle 2.58051e-15 -4.50481e-15 -3.16901e-30
rhumerus -43.1474 30.2494 -90.3532
rradius 77.8605 -0 0
rwrist -47.8874 0 0
rhand -6.63446 -30.7988 0.357564
rfingers 7.12502 -0 0
rthumb 19.1967 -59.5425 0.433964
2961
root -2.06682 15.4966 -30.4536 13.6749 -59.7404 -15.2992
lfemur -32.7901 20.1376 -3.36139
ltibia 46.3532 -0 0
lfoot -4.74426 4.37427 -0.587326
ltoes -26.5022 0 0
rfemur -24.4064 -10.2681 17.9
rtibia 60.7028 -0 0
rfoot -22.9101 -20.1969 0.00655473
rtoes -16.346 0 0
lowerback 11.0892 4.13116 0.150272
upperback -3.46011 5.71295 1.63796
thorax -10.023 2.78002 0.372697
lowerneck -4.88558 3.06439 -2.12457
upperneck 10.1316 3.91004 3.51324
head 4.14349 2.00531 1.45657
lclavicle 2.69573e-15 -4.42688e-15 -3.17593e-30
lhumerus -16.9657 4.48408 85.4675
lradius 65.3475 -0 0
lwrist -18.7428 0 0
lhand -37.5063 29.8901 0.0421475
lfingers 7.12502 -0 0
lthumb -10.5617 59.5743 0.0457586
rclavicle 2.69573e-15 -4.42688e-15 -3.17593e-30
rhumerus -43.1046 30.1551 -90.3029
rradius 77.6855 -0 0
rwrist -47.6859 0 0
rhand -6.68049 -30.8156 0.357794
rfingers 7.12502 -0 0
rthumb 19.1524 -59.5637 0.434233
